PathFileType	4	(X/Y/Z)	s10c0401.trc
DataRate	CameraRate	NumFrames	NumMarkers	Units	OrigDataRate	OrigDataStartFrame	OrigNumFrames
200	200	4	50	mm	200	1000	2000
Frame#	Time	racr			lacr			c7			jug			rlel			rdr			llel			ldr			s2			lic			ric			lasi			rasi			rpsi			lpsi			rgt			lgt			rth1			rth2			rth3			rth4			rlfc			rmfc			rsh1			rsh2			rsh3			rsh4			rlmal			rmmal			rcal			rtoe			rmt5			lth1			lth2			lth4			lth3			llfc			lmfc			llmal			lmmal			lcal			lmt5			lsh1			lsh2			lsh3			lsh4			ltoe			SBIKE			LBIKE			RBIKE			
		X1	Y1	Z1	X2	Y2	Z2	X3	Y3	Z3	X4	Y4	Z4	X5	Y5	Z5	X6	Y6	Z6	X7	Y7	Z7	X8	Y8	Z8	X9	Y9	Z9	X10	Y10	Z10	X11	Y11	Z11	X12	Y12	Z12	X13	Y13	Z13	X14	Y14	Z14	X15	Y15	Z15	X16	Y16	Z16	X17	Y17	Z17	X18	Y18	Z18	X19	Y19	Z19	X20	Y20	Z20	X21	Y21	Z21	X22	Y22	Z22	X23	Y23	Z23	X24	Y24	Z24	X25	Y25	Z25	X26	Y26	Z26	X27	Y27	Z27	X28	Y28	Z28	X29	Y29	Z29	X30	Y30	Z30	X31	Y31	Z31	X32	Y32	Z32	X33	Y33	Z33	X34	Y34	Z34	X35	Y35	Z35	X36	Y36	Z36	X37	Y37	Z37	X38	Y38	Z38	X39	Y39	Z39	X40	Y40	Z40	X41	Y41	Z41	X42	Y42	Z42	X43	Y43	Z43	X44	Y44	Z44	X45	Y45	Z45	X46	Y46	Z46	X47	Y47	Z47	X48	Y48	Z48	X49	Y49	Z49	X50	Y50	Z50	
1000	5.0000	658.272988	1303.005445	-19.675931	612.114418	1319.628141	-366.537231	629.976380	1361.432419	-184.065689	619.554292	1218.041844	-188.475900	508.680354	1072.400098	55.934234	625.909061	910.182026	-26.573154	477.623555	1084.742003	-483.950396	620.944879	916.835493	-436.539585	107.935173	1160.835382	-137.484492	251.729359	1177.867155	-307.396705	310.998903	1126.516775	-19.444199	268.079998	1084.804252	-292.773291	290.452731	1042.568585	-44.470998	165.981741	1197.029005	-76.463268	153.299350	1223.644913	-187.385630	173.226314	1027.658306	17.739971	145.121921	1071.775849	-356.965307	175.240368	891.784520	31.655264	196.538267	808.575529	9.261370	171.653770	728.235207	-6.108840	233.646234	810.359509	1.200147	181.723125	625.923988	-35.120961	161.832721	624.634157	-151.180119	121.266996	529.900055	-6.869209	121.990054	442.187425	-20.891049	80.112703	366.551538	-26.033051	151.409855	438.066983	-45.472966	56.635794	269.745473	-44.338717	75.264524	280.884010	-123.063593	4.510834	280.692958	-92.669980	198.657425	133.588925	-103.805762	117.470807	153.627207	-38.380122	236.470251	988.894693	-387.749027	320.983970	967.763839	-385.494061	338.459914	996.936671	-371.483151	384.668890	907.167437	-398.603370	478.929539	839.375211	-392.837485	486.481024	817.882174	-269.011953	169.486355	610.657425	-381.934768	186.234033	607.071997	-299.597816	102.281702	605.945079	-336.175149	228.807514	483.107946	-401.518549	376.718389	774.324899	-417.289296	328.704616	702.873102	-404.752205	246.577078	665.568736	-398.386420	348.617617	682.038953	-377.847899	313.862895	466.176713	-345.325488	-218.312164	833.745774	-213.595797	-104.046270	80.527340	-418.365367	-104.037756	80.411164	-18.304230	
1001	5.0050	657.131512	1304.998421	-20.694439	616.136892	1318.411533	-368.230166	631.027816	1362.105327	-185.642389	620.210966	1219.008693	-189.655178	508.613496	1073.268109	53.890271	626.141029	910.196450	-26.825761	477.692684	1084.751078	-484.455036	620.826589	916.850577	-436.776141	108.460082	1164.106365	-138.725033	252.143470	1179.269744	-308.792119	311.780232	1129.485204	-21.024631	268.235708	1086.443803	-293.762123	290.862466	1045.482796	-45.419503	166.854376	1199.817819	-78.179502	153.631186	1226.747165	-189.114312	173.185385	1030.972350	16.888301	145.409256	1073.934998	-358.012207	174.221973	895.126129	31.115565	194.738835	811.660752	8.908272	169.164295	731.573290	-6.185569	231.824915	813.136763	0.931823	177.850144	628.941613	-34.766593	159.146438	627.180956	-151.404463	117.121094	533.292431	-6.895171	118.226070	445.477293	-20.538150	76.571560	369.823864	-25.767856	147.976628	441.504930	-44.678733	53.475766	272.773747	-44.044694	71.816471	283.844773	-122.462793	1.824594	284.794611	-92.500736	193.103891	134.045388	-103.732107	112.266477	155.628513	-38.382223	236.279517	990.545434	-388.013311	320.684076	969.080756	-385.626455	338.272365	998.267302	-371.880903	384.100201	908.076448	-398.299667	478.654972	840.346163	-392.297480	486.485063	819.361896	-268.298775	171.953054	607.387745	-381.564661	188.521679	604.094523	-299.457057	104.997080	601.232239	-336.238432	233.894818	481.276228	-401.745049	377.064533	774.242136	-416.431671	330.065640	702.041958	-404.422526	248.101200	663.800204	-398.259184	350.322147	681.258253	-377.628347	319.406650	466.244017	-345.271643	-218.344288	833.791183	-213.875580	-104.050034	80.518034	-418.362265	-104.043071	80.415786	-18.299537	
1002	5.0100	656.085041	1306.611828	-21.730117	620.105299	1317.093225	-369.728942	631.966656	1362.350092	-186.634990	620.832203	1219.946840	-190.520798	508.538919	1074.159641	51.793981	626.302258	910.207154	-27.177202	477.882262	1084.913441	-485.010374	620.723961	916.892707	-436.850621	108.293878	1168.057687	-139.314031	252.680082	1180.726711	-310.727493	312.439270	1132.609941	-22.625931	268.403886	1087.997082	-294.740782	291.234438	1048.491979	-46.048302	167.887011	1202.367481	-78.545148	154.214005	1229.593698	-190.917008	173.284677	1034.384672	16.040708	145.724017	1076.155700	-359.089284	173.377511	898.551865	30.442733	193.172902	814.854393	8.481591	166.972394	734.870616	-6.496826	230.233461	815.932038	0.528517	174.491069	631.977061	-34.432084	156.863402	629.843788	-151.646889	113.289884	536.683577	-7.004172	114.747135	448.877561	-20.149626	73.214983	373.042296	-25.602727	144.734455	444.712257	-43.944161	50.154714	275.998454	-43.823613	68.641399	286.622934	-122.165778	-0.962972	288.895065	-92.533873	187.530793	134.780984	-103.622490	107.126709	157.915107	-38.291370	236.008322	992.246890	-388.558644	320.263127	970.296968	-385.917252	338.011476	999.455164	-372.360598	383.342361	908.875104	-398.156443	478.081525	840.862821	-391.900378	486.229540	820.628009	-267.700728	174.471901	603.933681	-381.572269	190.596978	600.823899	-299.195988	107.198875	596.088848	-336.224787	238.850305	479.073830	-402.026103	377.133664	773.745286	-415.701960	330.493657	700.247462	-403.266686	249.773971	661.364673	-397.954936	351.628846	680.164060	-377.434299	324.766433	466.530919	-345.678165	-218.345707	833.751964	-213.607600	-104.046891	80.526165	-418.340377	-104.041686	80.414576	-18.306138	
1003	5.0150	655.035484	1308.111447	-22.771915	624.021160	1315.751858	-371.103941	633.045288	1362.911081	-188.085576	621.440805	1220.819432	-191.506887	508.451740	1074.914072	49.732040	626.296813	910.162782	-27.775247	478.316049	1085.081325	-485.516545	620.686907	916.997781	-436.859899	108.638479	1171.250168	-140.956586	253.033171	1182.212027	-312.294132	312.878734	1135.729474	-24.451589	268.561555	1089.521208	-295.831744	291.502546	1051.335011	-47.000687	168.793937	1205.660082	-80.499701	154.849959	1232.325341	-192.926213	173.465482	1037.713633	15.077608	146.027266	1078.350114	-360.140536	172.830631	901.918826	29.630824	191.987487	817.969006	7.999465	165.292030	738.117557	-6.957769	229.039816	818.792156	-0.026189	171.627722	635.067174	-34.224614	155.195765	632.399129	-151.872034	110.012940	540.170292	-7.177035	111.463493	452.316202	-19.976304	70.019233	376.467244	-25.486140	141.783220	447.987833	-43.285439	46.714154	279.258691	-43.619771	65.754354	289.898969	-121.706129	-4.000998	292.860423	-92.535477	182.079071	135.972440	-103.571098	102.036390	160.362913	-38.244614	235.715811	993.779877	-389.068036	319.846252	971.167702	-386.273863	337.749461	1000.393404	-372.956469	382.432867	909.151674	-398.010207	477.290448	841.073330	-391.521841	485.690892	821.549993	-267.266253	176.771084	600.096803	-381.580226	192.790878	597.181120	-298.962250	109.338046	590.600668	-336.171831	243.664368	476.775812	-402.359644	376.962556	772.789723	-415.082614	331.365109	698.627668	-403.001339	251.489361	658.456948	-397.459715	352.843618	678.710329	-377.253495	329.972140	466.417871	-346.060652	-218.346117	833.759014	-213.657097	-104.064714	80.551250	-418.337927	-104.050685	80.424839	-18.295704	
